<?xml version="1.0" standalone="no"?>
<!DOCTYPE svg PUBLIC "-//W3C//DTD SVG 20010904//EN"
 "http://www.w3.org/TR/2001/REC-SVG-20010904/DTD/svg10.dtd">
<svg version="1.0" xmlns="http://www.w3.org/2000/svg"
 width="866.000000pt" height="391.000000pt" viewBox="0 0 866.000000 391.000000"
 preserveAspectRatio="xMidYMid meet">

<g transform="translate(0.000000,391.000000) scale(0.100000,-0.100000)"
fill="#000000" stroke="none">
<path d="M7961 3240 c-110 -40 -237 -135 -366 -277 -135 -146 -188 -218 -470
-628 -75 -108 -165 -263 -206 -353 -16 -36 -35 -70 -42 -74 -54 -35 -267 34
-423 138 -54 35 -99 64 -101 64 -7 0 57 -91 97 -139 55 -64 181 -161 264 -203
89 -44 86 -38 70 -119 -61 -320 -34 -590 83 -829 77 -159 213 -270 408 -336
99 -33 268 -44 378 -24 158 28 323 96 465 192 83 56 83 57 2 113 l-39 27 -33
-20 c-83 -51 -154 -66 -318 -66 -164 -1 -223 8 -317 50 -128 56 -215 195 -237
379 -9 73 24 218 68 302 98 186 269 280 528 290 111 5 128 4 134 -10 10 -26
-13 -79 -76 -178 -33 -51 -60 -98 -60 -105 0 -14 144 -69 235 -90 33 -7 87
-20 120 -29 33 -8 75 -15 93 -15 74 0 146 -61 180 -150 11 -30 62 -167 113
-305 99 -270 114 -305 129 -305 7 0 10 484 10 1360 l0 1360 -317 0 c-288 -1
-323 -3 -372 -20z m174 -713 c19 -19 37 -46 41 -61 10 -40 -16 -97 -56 -124
-96 -65 -215 45 -165 152 21 44 56 65 109 66 30 0 45 -7 71 -33z"/>
</g>
</svg>
